<svg xmlns="http://www.w3.org/2000/svg" xmlns:xlink="http://www.w3.org/1999/xlink" width="241" zoomAndPan="magnify" viewBox="0 0 180.75 53.25" height="71" preserveAspectRatio="xMidYMid meet" version="1.0"><defs><g/><clipPath id="e7a3a189c6"><path d="M 2.351562 4 L 54 4 L 54 52 L 2.351562 52 Z M 2.351562 4 " clip-rule="nonzero"/></clipPath><clipPath id="a23b6c7a83"><path d="M 12 0.519531 L 32 0.519531 L 32 23 L 12 23 Z M 12 0.519531 " clip-rule="nonzero"/></clipPath><clipPath id="a491965279"><path d="M 2.351562 36 L 14 36 L 14 45 L 2.351562 45 Z M 2.351562 36 " clip-rule="nonzero"/></clipPath></defs><g clip-path="url(#e7a3a189c6)"><path fill="#5e17eb" d="M 7.550781 38.109375 C 7.929688 38.617188 8.644531 38.722656 9.152344 38.347656 C 9.714844 37.929688 10.378906 37.707031 11.078125 37.707031 C 12.113281 37.707031 13.0625 38.183594 13.679688 39.015625 C 14.742188 40.449219 14.441406 42.480469 13.011719 43.542969 C 12.503906 43.921875 12.398438 44.636719 12.773438 45.144531 L 17.214844 51.128906 C 17.441406 51.429688 17.785156 51.589844 18.136719 51.589844 C 18.371094 51.589844 18.613281 51.515625 18.816406 51.367188 L 53.386719 25.703125 C 53.894531 25.324219 54 24.609375 53.625 24.101562 L 49.183594 18.117188 C 49.003906 17.875 48.730469 17.710938 48.433594 17.667969 C 48.132812 17.625 47.824219 17.699219 47.582031 17.878906 C 47.019531 18.296875 46.355469 18.519531 45.65625 18.519531 C 44.621094 18.519531 43.671875 18.042969 43.054688 17.210938 C 42.539062 16.515625 42.324219 15.664062 42.453125 14.808594 C 42.578125 13.953125 43.03125 13.199219 43.726562 12.683594 C 43.96875 12.503906 44.128906 12.230469 44.175781 11.933594 C 44.21875 11.632812 44.140625 11.328125 43.960938 11.082031 L 39.519531 5.097656 C 39.140625 4.589844 38.425781 4.484375 37.917969 4.863281 L 3.347656 30.527344 C 3.101562 30.707031 2.941406 30.976562 2.894531 31.277344 C 2.851562 31.578125 2.929688 31.882812 3.109375 32.125 Z M 29.84375 13.703125 L 30.1875 14.164062 C 30.355469 14.390625 30.613281 14.507812 30.875 14.507812 C 31.050781 14.507812 31.230469 14.453125 31.386719 14.339844 C 31.765625 14.058594 31.84375 13.519531 31.5625 13.140625 L 31.222656 12.679688 L 38.363281 7.378906 L 41.511719 11.621094 C 40.808594 12.417969 40.347656 13.398438 40.1875 14.472656 C 39.972656 15.933594 40.339844 17.390625 41.21875 18.574219 C 42.253906 19.972656 43.914062 20.804688 45.65625 20.804688 C 46.460938 20.804688 47.242188 20.632812 47.957031 20.304688 L 51.105469 24.546875 L 43.964844 29.847656 L 43.625 29.386719 C 43.34375 29.007812 42.804688 28.929688 42.425781 29.210938 C 42.042969 29.492188 41.964844 30.03125 42.246094 30.410156 L 42.585938 30.871094 L 18.371094 48.847656 L 15.222656 44.601562 C 16.914062 42.691406 17.097656 39.785156 15.515625 37.652344 C 14.480469 36.253906 12.820312 35.421875 11.078125 35.421875 C 10.273438 35.421875 9.492188 35.59375 8.777344 35.921875 L 5.628906 31.679688 Z M 29.84375 13.703125 " fill-opacity="1" fill-rule="nonzero"/></g><path fill="#5e17eb" d="M 39.835938 27.160156 C 40.003906 27.386719 40.261719 27.507812 40.523438 27.507812 C 40.703125 27.507812 40.878906 27.453125 41.035156 27.339844 C 41.414062 27.054688 41.496094 26.519531 41.210938 26.136719 L 38.800781 22.890625 C 38.515625 22.507812 37.980469 22.429688 37.597656 22.710938 C 37.21875 22.992188 37.140625 23.53125 37.421875 23.910156 Z M 39.835938 27.160156 " fill-opacity="1" fill-rule="nonzero"/><path fill="#5e17eb" d="M 35.011719 20.660156 C 35.179688 20.886719 35.4375 21.007812 35.699219 21.007812 C 35.875 21.007812 36.054688 20.953125 36.210938 20.839844 C 36.589844 20.558594 36.671875 20.019531 36.386719 19.640625 L 33.976562 16.390625 C 33.691406 16.007812 33.15625 15.929688 32.773438 16.210938 C 32.394531 16.496094 32.316406 17.03125 32.597656 17.414062 Z M 35.011719 20.660156 " fill-opacity="1" fill-rule="nonzero"/><g clip-path="url(#a23b6c7a83)"><path fill="#5e17eb" d="M 12.8125 22.078125 C 12.980469 22.164062 13.164062 22.207031 13.339844 22.207031 C 13.753906 22.207031 14.152344 21.980469 14.355469 21.589844 L 19.015625 12.652344 L 19.398438 12.855469 C 19.527344 12.917969 19.660156 12.949219 19.796875 12.949219 C 20.105469 12.949219 20.402344 12.78125 20.558594 12.488281 C 20.777344 12.070312 20.613281 11.550781 20.191406 11.332031 L 19.808594 11.132812 L 23.921875 3.246094 L 28.609375 5.691406 C 28.316406 6.722656 28.335938 7.816406 28.667969 8.859375 C 28.863281 9.460938 29.503906 9.792969 30.105469 9.601562 C 30.707031 9.40625 31.039062 8.765625 30.847656 8.164062 C 30.582031 7.332031 30.65625 6.449219 31.058594 5.679688 C 31.351562 5.117188 31.136719 4.429688 30.574219 4.136719 L 23.964844 0.691406 C 23.695312 0.550781 23.382812 0.519531 23.09375 0.613281 C 22.804688 0.703125 22.5625 0.90625 22.421875 1.175781 L 12.328125 20.535156 C 12.035156 21.09375 12.253906 21.785156 12.8125 22.078125 Z M 12.8125 22.078125 " fill-opacity="1" fill-rule="nonzero"/></g><g clip-path="url(#a491965279)"><path fill="#5e17eb" d="M 3 40.894531 L 9.609375 44.339844 C 9.773438 44.425781 9.953125 44.472656 10.136719 44.472656 C 10.253906 44.472656 10.367188 44.453125 10.480469 44.417969 C 10.769531 44.328125 11.011719 44.125 11.152344 43.855469 C 11.511719 43.160156 12.117188 42.621094 12.847656 42.335938 C 13.4375 42.109375 13.726562 41.445312 13.5 40.855469 C 13.273438 40.265625 12.609375 39.976562 12.019531 40.203125 C 11.132812 40.546875 10.355469 41.113281 9.757812 41.839844 L 5.070312 39.394531 L 5.730469 38.132812 C 6.019531 37.574219 5.804688 36.882812 5.242188 36.589844 C 4.683594 36.300781 3.992188 36.515625 3.699219 37.074219 L 2.515625 39.351562 C 2.375 39.621094 2.34375 39.933594 2.4375 40.222656 C 2.527344 40.511719 2.730469 40.753906 3 40.894531 Z M 3 40.894531 " fill-opacity="1" fill-rule="nonzero"/></g><path fill="#5e17eb" d="M 25.074219 47.273438 L 24.027344 49.28125 L 23.480469 48.996094 C 22.917969 48.707031 22.230469 48.921875 21.9375 49.480469 C 21.644531 50.042969 21.863281 50.734375 22.421875 51.023438 L 23.984375 51.839844 C 24.148438 51.925781 24.328125 51.96875 24.511719 51.96875 C 24.628906 51.96875 24.742188 51.949219 24.855469 51.914062 C 25.144531 51.824219 25.386719 51.621094 25.527344 51.351562 L 27.101562 48.332031 C 27.394531 47.773438 27.175781 47.082031 26.617188 46.789062 C 26.058594 46.5 25.367188 46.714844 25.074219 47.273438 Z M 25.074219 47.273438 " fill-opacity="1" fill-rule="nonzero"/><path fill="#5e17eb" d="M 22.789062 12.6875 C 22.371094 12.46875 21.851562 12.632812 21.632812 13.050781 C 21.414062 13.472656 21.578125 13.992188 22 14.210938 L 22.636719 14.542969 C 22.765625 14.609375 22.898438 14.640625 23.035156 14.640625 C 23.34375 14.640625 23.640625 14.472656 23.796875 14.179688 C 24.015625 13.757812 23.851562 13.242188 23.433594 13.023438 Z M 22.789062 12.6875 " fill-opacity="1" fill-rule="nonzero"/><g fill="#000000" fill-opacity="1"><g transform="translate(54.012151, 16.233327)"><g><path d="M 14.109375 0 L 13.375 -9.296875 L 13.265625 -9.296875 L 10.0625 -0.09375 L 7.921875 -0.09375 L 4.71875 -9.296875 L 4.625 -9.296875 L 3.875 0 L 0.296875 0 L 1.71875 -15.6875 L 5.515625 -15.6875 L 9 -6.640625 L 12.46875 -15.6875 L 16.28125 -15.6875 L 17.6875 0 Z M 14.109375 0 "/></g></g></g><g fill="#000000" fill-opacity="1"><g transform="translate(72.006124, 16.233327)"><g><path d="M 4.3125 -9.75 L 4.3125 -5.109375 C 4.3125 -4.148438 4.457031 -3.46875 4.75 -3.0625 C 5.039062 -2.65625 5.535156 -2.453125 6.234375 -2.453125 C 6.929688 -2.453125 7.425781 -2.65625 7.71875 -3.0625 C 8.007812 -3.46875 8.15625 -4.148438 8.15625 -5.109375 L 8.15625 -9.75 L 11.515625 -9.75 L 11.515625 -4.296875 C 11.515625 -2.671875 11.09375 -1.5 10.25 -0.78125 C 9.414062 -0.0703125 8.078125 0.28125 6.234375 0.28125 C 4.398438 0.28125 3.0625 -0.0703125 2.21875 -0.78125 C 1.375 -1.5 0.953125 -2.671875 0.953125 -4.296875 L 0.953125 -9.75 Z M 4.3125 -9.75 "/></g></g></g><g fill="#000000" fill-opacity="1"><g transform="translate(84.483974, 16.233327)"><g><path d="M 1.140625 0 L 1.140625 -16.359375 L 4.5 -16.359375 L 4.5 0 Z M 1.140625 0 "/></g></g></g><g fill="#000000" fill-opacity="1"><g transform="translate(90.13325, 16.233327)"><g><path d="M 1.71875 -9.75 L 1.71875 -13.390625 L 5.078125 -13.390625 L 5.078125 -9.75 L 7.125 -9.75 L 7.125 -7.1875 L 5.078125 -7.1875 L 5.078125 -4.09375 C 5.078125 -3.1875 5.332031 -2.734375 5.84375 -2.734375 C 5.96875 -2.734375 6.097656 -2.757812 6.234375 -2.8125 C 6.378906 -2.863281 6.488281 -2.914062 6.5625 -2.96875 L 6.671875 -3.046875 L 7.515625 -0.328125 C 6.785156 0.078125 5.960938 0.28125 5.046875 0.28125 C 4.410156 0.28125 3.863281 0.171875 3.40625 -0.046875 C 2.945312 -0.265625 2.597656 -0.5625 2.359375 -0.9375 C 2.128906 -1.3125 1.960938 -1.703125 1.859375 -2.109375 C 1.765625 -2.523438 1.71875 -2.96875 1.71875 -3.4375 L 1.71875 -7.1875 L 0.296875 -7.1875 L 0.296875 -9.75 Z M 1.71875 -9.75 "/></g></g></g><g fill="#000000" fill-opacity="1"><g transform="translate(97.646595, 16.233327)"><g><path d="M 1.453125 -15.1875 C 1.847656 -15.582031 2.316406 -15.78125 2.859375 -15.78125 C 3.410156 -15.78125 3.882812 -15.582031 4.28125 -15.1875 C 4.675781 -14.800781 4.875 -14.332031 4.875 -13.78125 C 4.875 -13.238281 4.675781 -12.769531 4.28125 -12.375 C 3.882812 -11.988281 3.410156 -11.796875 2.859375 -11.796875 C 2.316406 -11.796875 1.847656 -11.988281 1.453125 -12.375 C 1.066406 -12.769531 0.875 -13.238281 0.875 -13.78125 C 0.875 -14.332031 1.066406 -14.800781 1.453125 -15.1875 Z M 1.140625 -9.75 L 1.140625 0 L 4.5 0 L 4.5 -9.75 Z M 1.140625 -9.75 "/></g></g></g><g fill="#000000" fill-opacity="1"><g transform="translate(103.390971, 16.233327)"><g><path d="M 1.140625 -15.6875 L 5.6875 -15.6875 C 7.863281 -15.6875 9.722656 -14.941406 11.265625 -13.453125 C 12.816406 -11.960938 13.59375 -10.097656 13.59375 -7.859375 C 13.59375 -5.597656 12.820312 -3.722656 11.28125 -2.234375 C 9.738281 -0.742188 7.875 0 5.6875 0 L 1.140625 0 Z M 4.71875 -3.1875 L 5.265625 -3.1875 C 6.566406 -3.1875 7.632812 -3.628906 8.46875 -4.515625 C 9.300781 -5.398438 9.722656 -6.503906 9.734375 -7.828125 C 9.734375 -9.160156 9.316406 -10.269531 8.484375 -11.15625 C 7.660156 -12.050781 6.585938 -12.5 5.265625 -12.5 L 4.71875 -12.5 Z M 4.71875 -3.1875 "/></g></g></g><g fill="#000000" fill-opacity="1"><g transform="translate(117.428552, 16.233327)"><g><path d="M 11.015625 -4.40625 L 3.9375 -4.40625 C 3.9375 -3.726562 4.15625 -3.222656 4.59375 -2.890625 C 5.039062 -2.554688 5.523438 -2.390625 6.046875 -2.390625 C 6.585938 -2.390625 7.015625 -2.460938 7.328125 -2.609375 C 7.648438 -2.753906 8.015625 -3.046875 8.421875 -3.484375 L 10.859375 -2.265625 C 9.847656 -0.566406 8.160156 0.28125 5.796875 0.28125 C 4.328125 0.28125 3.066406 -0.21875 2.015625 -1.21875 C 0.960938 -2.226562 0.4375 -3.441406 0.4375 -4.859375 C 0.4375 -6.285156 0.960938 -7.503906 2.015625 -8.515625 C 3.066406 -9.535156 4.328125 -10.046875 5.796875 -10.046875 C 7.347656 -10.046875 8.609375 -9.597656 9.578125 -8.703125 C 10.546875 -7.804688 11.03125 -6.53125 11.03125 -4.875 C 11.03125 -4.644531 11.023438 -4.488281 11.015625 -4.40625 Z M 4.03125 -6.28125 L 7.734375 -6.28125 C 7.660156 -6.78125 7.460938 -7.164062 7.140625 -7.4375 C 6.816406 -7.71875 6.398438 -7.859375 5.890625 -7.859375 C 5.335938 -7.859375 4.894531 -7.710938 4.5625 -7.421875 C 4.226562 -7.128906 4.050781 -6.75 4.03125 -6.28125 Z M 4.03125 -6.28125 "/></g></g></g><g fill="#000000" fill-opacity="1"><g transform="translate(128.898289, 16.233327)"><g><path d="M 5.375 -10.046875 C 5.9375 -10.046875 6.488281 -9.976562 7.03125 -9.84375 C 7.582031 -9.71875 7.988281 -9.59375 8.25 -9.46875 L 8.65625 -9.28125 L 7.546875 -7.078125 C 6.785156 -7.484375 6.0625 -7.6875 5.375 -7.6875 C 5 -7.6875 4.726562 -7.644531 4.5625 -7.5625 C 4.40625 -7.476562 4.328125 -7.320312 4.328125 -7.09375 C 4.328125 -7.039062 4.332031 -6.988281 4.34375 -6.9375 C 4.363281 -6.882812 4.390625 -6.835938 4.421875 -6.796875 C 4.460938 -6.753906 4.5 -6.71875 4.53125 -6.6875 C 4.5625 -6.65625 4.613281 -6.617188 4.6875 -6.578125 C 4.769531 -6.535156 4.832031 -6.503906 4.875 -6.484375 C 4.914062 -6.472656 4.988281 -6.445312 5.09375 -6.40625 C 5.195312 -6.363281 5.273438 -6.332031 5.328125 -6.3125 C 5.378906 -6.300781 5.460938 -6.273438 5.578125 -6.234375 C 5.703125 -6.203125 5.796875 -6.175781 5.859375 -6.15625 C 6.253906 -6.039062 6.597656 -5.914062 6.890625 -5.78125 C 7.179688 -5.644531 7.488281 -5.453125 7.8125 -5.203125 C 8.132812 -4.960938 8.382812 -4.660156 8.5625 -4.296875 C 8.738281 -3.929688 8.828125 -3.515625 8.828125 -3.046875 C 8.828125 -0.828125 7.285156 0.28125 4.203125 0.28125 C 3.503906 0.28125 2.84375 0.175781 2.21875 -0.03125 C 1.59375 -0.25 1.140625 -0.46875 0.859375 -0.6875 L 0.4375 -1.03125 L 1.8125 -3.328125 C 1.90625 -3.234375 2.035156 -3.125 2.203125 -3 C 2.367188 -2.882812 2.664062 -2.722656 3.09375 -2.515625 C 3.53125 -2.304688 3.90625 -2.203125 4.21875 -2.203125 C 4.914062 -2.203125 5.265625 -2.4375 5.265625 -2.90625 C 5.265625 -3.125 5.175781 -3.289062 5 -3.40625 C 4.820312 -3.53125 4.519531 -3.664062 4.09375 -3.8125 C 3.664062 -3.96875 3.332031 -4.109375 3.09375 -4.234375 C 2.488281 -4.554688 2.007812 -4.914062 1.65625 -5.3125 C 1.300781 -5.707031 1.125 -6.238281 1.125 -6.90625 C 1.125 -7.894531 1.503906 -8.664062 2.265625 -9.21875 C 3.035156 -9.769531 4.070312 -10.046875 5.375 -10.046875 Z M 5.375 -10.046875 "/></g></g></g><g fill="#000000" fill-opacity="1"><g transform="translate(138.256676, 16.233327)"><g><path d="M 12.28125 -9.75 L 7.640625 -5.09375 L 12.734375 0 L 8.40625 0 L 4.5 -3.890625 L 4.5 0 L 1.140625 0 L 1.140625 -16.359375 L 4.5 -16.359375 L 4.5 -6.34375 L 7.90625 -9.75 Z M 12.28125 -9.75 "/></g></g></g><g fill="#000000" fill-opacity="1"><g transform="translate(54.012151, 39.160409)"><g><path d="M 5.765625 -20.90625 C 7.421875 -20.90625 8.613281 -20.453125 9.34375 -19.546875 C 10.082031 -18.640625 10.453125 -17.390625 10.453125 -15.796875 L 10.453125 -13.296875 C 10.453125 -11.617188 10.054688 -10.359375 9.265625 -9.515625 C 8.484375 -8.671875 7.257812 -8.25 5.59375 -8.25 L 3.53125 -8.25 L 3.53125 0 L 1.1875 0 L 1.1875 -20.90625 Z M 5.59375 -10.34375 C 6.46875 -10.34375 7.113281 -10.554688 7.53125 -10.984375 C 7.945312 -11.410156 8.15625 -12.128906 8.15625 -13.140625 L 8.15625 -15.921875 C 8.15625 -16.878906 7.96875 -17.597656 7.59375 -18.078125 C 7.226562 -18.554688 6.617188 -18.796875 5.765625 -18.796875 L 3.53125 -18.796875 L 3.53125 -10.34375 Z M 5.59375 -10.34375 "/></g></g></g><g fill="#000000" fill-opacity="1"><g transform="translate(65.180044, 39.160409)"><g><path d="M 1.1875 0 L 1.1875 -20.90625 L 3.53125 -20.90625 L 3.53125 -2.125 L 9.5 -2.125 L 9.5 0 Z M 1.1875 0 "/></g></g></g><g fill="#000000" fill-opacity="1"><g transform="translate(75.243087, 39.160409)"><g><path d="M 3.5625 -4.21875 L 2.75 0 L 0.59375 0 L 4.59375 -20.90625 L 7.984375 -20.90625 L 11.984375 0 L 9.65625 0 L 8.84375 -4.21875 Z M 3.859375 -6.21875 L 8.515625 -6.21875 L 6.15625 -18.28125 Z M 3.859375 -6.21875 "/></g></g></g><g fill="#000000" fill-opacity="1"><g transform="translate(87.844295, 39.160409)"><g><path d="M 4.21875 0 L 4.21875 -18.796875 L 0.359375 -18.796875 L 0.359375 -20.90625 L 10.359375 -20.90625 L 10.359375 -18.796875 L 6.515625 -18.796875 L 6.515625 0 Z M 4.21875 0 "/></g></g></g><g fill="#000000" fill-opacity="1"><g transform="translate(98.594141, 39.160409)"><g><path d="M 3.5625 -4.21875 L 2.75 0 L 0.59375 0 L 4.59375 -20.90625 L 7.984375 -20.90625 L 11.984375 0 L 9.65625 0 L 8.84375 -4.21875 Z M 3.859375 -6.21875 L 8.515625 -6.21875 L 6.15625 -18.28125 Z M 3.859375 -6.21875 "/></g></g></g><g fill="#000000" fill-opacity="1"><g transform="translate(111.195349, 39.160409)"><g><path d="M 8.328125 -11.171875 L 8.328125 -9.046875 L 3.53125 -9.046875 L 3.53125 0 L 1.1875 0 L 1.1875 -20.90625 L 9.5 -20.90625 L 9.5 -18.796875 L 3.53125 -18.796875 L 3.53125 -11.171875 Z M 8.328125 -11.171875 "/></g></g></g><g fill="#000000" fill-opacity="1"><g transform="translate(121.347974, 39.160409)"><g><path d="M 1.015625 -15.859375 C 1.015625 -17.472656 1.40625 -18.753906 2.1875 -19.703125 C 2.976562 -20.648438 4.179688 -21.125 5.796875 -21.125 C 7.410156 -21.125 8.613281 -20.648438 9.40625 -19.703125 C 10.207031 -18.753906 10.609375 -17.472656 10.609375 -15.859375 L 10.609375 -5.046875 C 10.609375 -3.453125 10.207031 -2.175781 9.40625 -1.21875 C 8.613281 -0.269531 7.410156 0.203125 5.796875 0.203125 C 4.179688 0.203125 2.976562 -0.269531 2.1875 -1.21875 C 1.40625 -2.175781 1.015625 -3.453125 1.015625 -5.046875 Z M 3.3125 -4.921875 C 3.3125 -3.972656 3.515625 -3.234375 3.921875 -2.703125 C 4.335938 -2.171875 4.960938 -1.90625 5.796875 -1.90625 C 6.648438 -1.90625 7.273438 -2.171875 7.671875 -2.703125 C 8.078125 -3.234375 8.28125 -3.972656 8.28125 -4.921875 L 8.28125 -15.984375 C 8.28125 -16.941406 8.078125 -17.679688 7.671875 -18.203125 C 7.273438 -18.734375 6.648438 -19 5.796875 -19 C 4.960938 -19 4.335938 -18.734375 3.921875 -18.203125 C 3.515625 -17.679688 3.3125 -16.941406 3.3125 -15.984375 Z M 3.3125 -4.921875 "/></g></g></g><g fill="#000000" fill-opacity="1"><g transform="translate(132.963774, 39.160409)"><g><path d="M 5.859375 -20.90625 C 7.503906 -20.90625 8.691406 -20.5 9.421875 -19.6875 C 10.148438 -18.875 10.515625 -17.6875 10.515625 -16.125 L 10.515625 -14.421875 C 10.515625 -13.273438 10.304688 -12.34375 9.890625 -11.625 C 9.472656 -10.90625 8.816406 -10.40625 7.921875 -10.125 C 8.867188 -9.84375 9.539062 -9.328125 9.9375 -8.578125 C 10.34375 -7.835938 10.546875 -6.898438 10.546875 -5.765625 L 10.546875 -2.515625 C 10.546875 -2.054688 10.566406 -1.609375 10.609375 -1.171875 C 10.648438 -0.742188 10.769531 -0.351562 10.96875 0 L 8.609375 0 C 8.460938 -0.300781 8.359375 -0.625 8.296875 -0.96875 C 8.242188 -1.320312 8.21875 -1.847656 8.21875 -2.546875 L 8.21875 -5.828125 C 8.21875 -7.003906 7.953125 -7.816406 7.421875 -8.265625 C 6.890625 -8.710938 6.140625 -8.9375 5.171875 -8.9375 L 3.53125 -8.9375 L 3.53125 0 L 1.1875 0 L 1.1875 -20.90625 Z M 5.265625 -11.046875 C 6.191406 -11.046875 6.914062 -11.238281 7.4375 -11.625 C 7.957031 -12.019531 8.21875 -12.785156 8.21875 -13.921875 L 8.21875 -15.921875 C 8.21875 -16.878906 8.03125 -17.597656 7.65625 -18.078125 C 7.289062 -18.554688 6.671875 -18.796875 5.796875 -18.796875 L 3.53125 -18.796875 L 3.53125 -11.046875 Z M 5.265625 -11.046875 "/></g></g></g><g fill="#000000" fill-opacity="1"><g transform="translate(144.728877, 39.160409)"><g><path d="M 8.90625 -0.03125 L 6.65625 -0.03125 L 3.203125 -16.671875 L 3.203125 0 L 1.171875 0 L 1.171875 -20.90625 L 4.421875 -20.90625 L 7.859375 -4.21875 L 11.171875 -20.90625 L 14.421875 -20.90625 L 14.421875 0 L 12.21875 0 L 12.21875 -16.8125 Z M 8.90625 -0.03125 "/></g></g></g><g fill="#000000" fill-opacity="1"><g transform="translate(160.346006, 39.160409)"><g><path d="M 3.5625 -4.21875 L 2.75 0 L 0.59375 0 L 4.59375 -20.90625 L 7.984375 -20.90625 L 11.984375 0 L 9.65625 0 L 8.84375 -4.21875 Z M 3.859375 -6.21875 L 8.515625 -6.21875 L 6.15625 -18.28125 Z M 3.859375 -6.21875 "/></g></g></g><g fill="#737373" fill-opacity="1"><g transform="translate(54.012151, 51.44541)"><g><path d="M 5.421875 -6.03125 L 9.6875 -6.03125 L 9.6875 -0.46875 C 9 -0.238281 8.347656 -0.0820312 7.734375 0 C 7.128906 0.09375 6.507812 0.140625 5.875 0.140625 C 4.25 0.140625 3.007812 -0.332031 2.15625 -1.28125 C 1.300781 -2.238281 0.875 -3.609375 0.875 -5.390625 C 0.875 -7.117188 1.367188 -8.46875 2.359375 -9.4375 C 3.347656 -10.40625 4.722656 -10.890625 6.484375 -10.890625 C 7.585938 -10.890625 8.648438 -10.671875 9.671875 -10.234375 L 8.921875 -8.40625 C 8.140625 -8.800781 7.320312 -9 6.46875 -9 C 5.488281 -9 4.703125 -8.664062 4.109375 -8 C 3.515625 -7.34375 3.21875 -6.457031 3.21875 -5.34375 C 3.21875 -4.175781 3.457031 -3.285156 3.9375 -2.671875 C 4.414062 -2.054688 5.109375 -1.75 6.015625 -1.75 C 6.492188 -1.75 6.976562 -1.796875 7.46875 -1.890625 L 7.46875 -4.140625 L 5.421875 -4.140625 Z M 5.421875 -6.03125 "/></g></g></g><g fill="#737373" fill-opacity="1"><g transform="translate(64.904845, 51.44541)"><g><path d="M 4.578125 -6.78125 C 4.097656 -6.78125 3.722656 -6.628906 3.453125 -6.328125 C 3.191406 -6.023438 3.039062 -5.597656 3 -5.046875 L 6.140625 -5.046875 C 6.128906 -5.597656 5.984375 -6.023438 5.703125 -6.328125 C 5.429688 -6.628906 5.054688 -6.78125 4.578125 -6.78125 Z M 4.890625 0.140625 C 3.566406 0.140625 2.53125 -0.222656 1.78125 -0.953125 C 1.039062 -1.679688 0.671875 -2.710938 0.671875 -4.046875 C 0.671875 -5.421875 1.015625 -6.484375 1.703125 -7.234375 C 2.390625 -7.992188 3.34375 -8.375 4.5625 -8.375 C 5.71875 -8.375 6.617188 -8.039062 7.265625 -7.375 C 7.921875 -6.71875 8.25 -5.804688 8.25 -4.640625 L 8.25 -3.546875 L 2.953125 -3.546875 C 2.972656 -2.910156 3.160156 -2.410156 3.515625 -2.046875 C 3.867188 -1.691406 4.363281 -1.515625 5 -1.515625 C 5.488281 -1.515625 5.953125 -1.566406 6.390625 -1.671875 C 6.835938 -1.773438 7.300781 -1.941406 7.78125 -2.171875 L 7.78125 -0.4375 C 7.382812 -0.238281 6.960938 -0.09375 6.515625 0 C 6.078125 0.09375 5.535156 0.140625 4.890625 0.140625 Z M 4.890625 0.140625 "/></g></g></g><g fill="#737373" fill-opacity="1"><g transform="translate(73.792344, 51.44541)"><g><path d="M 5.765625 -8.375 C 6.066406 -8.375 6.316406 -8.347656 6.515625 -8.296875 L 6.34375 -6.203125 C 6.164062 -6.253906 5.945312 -6.28125 5.6875 -6.28125 C 4.96875 -6.28125 4.410156 -6.09375 4.015625 -5.71875 C 3.617188 -5.351562 3.421875 -4.84375 3.421875 -4.1875 L 3.421875 0 L 1.171875 0 L 1.171875 -8.21875 L 2.875 -8.21875 L 3.203125 -6.828125 L 3.3125 -6.828125 C 3.570312 -7.296875 3.914062 -7.671875 4.34375 -7.953125 C 4.78125 -8.234375 5.253906 -8.375 5.765625 -8.375 Z M 5.765625 -8.375 "/></g></g></g><g fill="#737373" fill-opacity="1"><g transform="translate(80.623231, 51.44541)"><g><path d="M 4.578125 -6.78125 C 4.097656 -6.78125 3.722656 -6.628906 3.453125 -6.328125 C 3.191406 -6.023438 3.039062 -5.597656 3 -5.046875 L 6.140625 -5.046875 C 6.128906 -5.597656 5.984375 -6.023438 5.703125 -6.328125 C 5.429688 -6.628906 5.054688 -6.78125 4.578125 -6.78125 Z M 4.890625 0.140625 C 3.566406 0.140625 2.53125 -0.222656 1.78125 -0.953125 C 1.039062 -1.679688 0.671875 -2.710938 0.671875 -4.046875 C 0.671875 -5.421875 1.015625 -6.484375 1.703125 -7.234375 C 2.390625 -7.992188 3.34375 -8.375 4.5625 -8.375 C 5.71875 -8.375 6.617188 -8.039062 7.265625 -7.375 C 7.921875 -6.71875 8.25 -5.804688 8.25 -4.640625 L 8.25 -3.546875 L 2.953125 -3.546875 C 2.972656 -2.910156 3.160156 -2.410156 3.515625 -2.046875 C 3.867188 -1.691406 4.363281 -1.515625 5 -1.515625 C 5.488281 -1.515625 5.953125 -1.566406 6.390625 -1.671875 C 6.835938 -1.773438 7.300781 -1.941406 7.78125 -2.171875 L 7.78125 -0.4375 C 7.382812 -0.238281 6.960938 -0.09375 6.515625 0 C 6.078125 0.09375 5.535156 0.140625 4.890625 0.140625 Z M 4.890625 0.140625 "/></g></g></g><g fill="#737373" fill-opacity="1"><g transform="translate(89.510729, 51.44541)"><g><path d="M 8.75 0 L 6.515625 0 L 6.515625 -4.796875 C 6.515625 -5.390625 6.410156 -5.832031 6.203125 -6.125 C 5.992188 -6.425781 5.65625 -6.578125 5.1875 -6.578125 C 4.5625 -6.578125 4.109375 -6.363281 3.828125 -5.9375 C 3.554688 -5.519531 3.421875 -4.828125 3.421875 -3.859375 L 3.421875 0 L 1.171875 0 L 1.171875 -8.21875 L 2.890625 -8.21875 L 3.1875 -7.15625 L 3.3125 -7.15625 C 3.5625 -7.5625 3.90625 -7.863281 4.34375 -8.0625 C 4.78125 -8.269531 5.28125 -8.375 5.84375 -8.375 C 6.800781 -8.375 7.523438 -8.113281 8.015625 -7.59375 C 8.503906 -7.070312 8.75 -6.328125 8.75 -5.359375 Z M 8.75 0 "/></g></g></g><g fill="#737373" fill-opacity="1"><g transform="translate(99.397153, 51.44541)"><g><path d="M 4.515625 0.140625 C 1.953125 0.140625 0.671875 -1.257812 0.671875 -4.0625 C 0.671875 -5.457031 1.019531 -6.523438 1.71875 -7.265625 C 2.414062 -8.003906 3.410156 -8.375 4.703125 -8.375 C 5.660156 -8.375 6.515625 -8.1875 7.265625 -7.8125 L 6.609375 -6.078125 C 6.253906 -6.222656 5.925781 -6.335938 5.625 -6.421875 C 5.320312 -6.515625 5.015625 -6.5625 4.703125 -6.5625 C 3.535156 -6.5625 2.953125 -5.734375 2.953125 -4.078125 C 2.953125 -2.472656 3.535156 -1.671875 4.703125 -1.671875 C 5.140625 -1.671875 5.539062 -1.726562 5.90625 -1.84375 C 6.269531 -1.957031 6.640625 -2.132812 7.015625 -2.375 L 7.015625 -0.46875 C 6.648438 -0.238281 6.28125 -0.0820312 5.90625 0 C 5.539062 0.09375 5.078125 0.140625 4.515625 0.140625 Z M 4.515625 0.140625 "/></g></g></g><g fill="#737373" fill-opacity="1"><g transform="translate(107.131481, 51.44541)"><g><path d="M 1.078125 -10.34375 C 1.078125 -11.070312 1.484375 -11.4375 2.296875 -11.4375 C 3.109375 -11.4375 3.515625 -11.070312 3.515625 -10.34375 C 3.515625 -9.988281 3.410156 -9.710938 3.203125 -9.515625 C 3.003906 -9.328125 2.703125 -9.234375 2.296875 -9.234375 C 1.484375 -9.234375 1.078125 -9.601562 1.078125 -10.34375 Z M 3.421875 0 L 1.171875 0 L 1.171875 -8.21875 L 3.421875 -8.21875 Z M 3.421875 0 "/></g></g></g><g fill="#737373" fill-opacity="1"><g transform="translate(111.722131, 51.44541)"><g><path d="M 6.390625 0 L 5.953125 -1.109375 L 5.90625 -1.109375 C 5.519531 -0.640625 5.128906 -0.3125 4.734375 -0.125 C 4.335938 0.0507812 3.816406 0.140625 3.171875 0.140625 C 2.378906 0.140625 1.753906 -0.0820312 1.296875 -0.53125 C 0.847656 -0.976562 0.625 -1.617188 0.625 -2.453125 C 0.625 -3.328125 0.929688 -3.96875 1.546875 -4.375 C 2.160156 -4.789062 3.082031 -5.019531 4.3125 -5.0625 L 5.734375 -5.109375 L 5.734375 -5.46875 C 5.734375 -6.300781 5.304688 -6.71875 4.453125 -6.71875 C 3.796875 -6.71875 3.023438 -6.519531 2.140625 -6.125 L 1.390625 -7.640625 C 2.335938 -8.140625 3.390625 -8.390625 4.546875 -8.390625 C 5.640625 -8.390625 6.476562 -8.144531 7.0625 -7.65625 C 7.65625 -7.175781 7.953125 -6.445312 7.953125 -5.46875 L 7.953125 0 Z M 5.734375 -3.8125 L 4.859375 -3.78125 C 4.210938 -3.757812 3.726562 -3.640625 3.40625 -3.421875 C 3.09375 -3.203125 2.9375 -2.875 2.9375 -2.4375 C 2.9375 -1.800781 3.296875 -1.484375 4.015625 -1.484375 C 4.535156 -1.484375 4.953125 -1.632812 5.265625 -1.9375 C 5.578125 -2.238281 5.734375 -2.632812 5.734375 -3.125 Z M 5.734375 -3.8125 "/></g></g></g><g fill="#737373" fill-opacity="1"><g transform="translate(120.807945, 51.44541)"><g><path d="M 8.53125 0 L 6.296875 0 L 6.296875 -4.796875 C 6.296875 -5.390625 6.191406 -5.832031 5.984375 -6.125 C 5.785156 -6.425781 5.476562 -6.578125 5.0625 -6.578125 C 4.476562 -6.578125 4.054688 -6.363281 3.796875 -5.9375 C 3.546875 -5.519531 3.421875 -4.828125 3.421875 -3.859375 L 3.421875 0 L 1.171875 0 L 1.171875 -8.21875 L 2.890625 -8.21875 L 3.1875 -7.15625 L 3.3125 -7.15625 C 3.53125 -7.539062 3.847656 -7.835938 4.265625 -8.046875 C 4.679688 -8.265625 5.160156 -8.375 5.703125 -8.375 C 6.929688 -8.375 7.765625 -7.96875 8.203125 -7.15625 L 8.390625 -7.15625 C 8.617188 -7.539062 8.945312 -7.835938 9.375 -8.046875 C 9.800781 -8.265625 10.285156 -8.375 10.828125 -8.375 C 11.753906 -8.375 12.457031 -8.132812 12.9375 -7.65625 C 13.414062 -7.175781 13.65625 -6.410156 13.65625 -5.359375 L 13.65625 0 L 11.40625 0 L 11.40625 -4.796875 C 11.40625 -5.390625 11.304688 -5.832031 11.109375 -6.125 C 10.910156 -6.425781 10.597656 -6.578125 10.171875 -6.578125 C 9.617188 -6.578125 9.207031 -6.378906 8.9375 -5.984375 C 8.664062 -5.597656 8.53125 -4.976562 8.53125 -4.125 Z M 8.53125 0 "/></g></g></g><g fill="#737373" fill-opacity="1"><g transform="translate(135.578821, 51.44541)"><g><path d="M 4.578125 -6.78125 C 4.097656 -6.78125 3.722656 -6.628906 3.453125 -6.328125 C 3.191406 -6.023438 3.039062 -5.597656 3 -5.046875 L 6.140625 -5.046875 C 6.128906 -5.597656 5.984375 -6.023438 5.703125 -6.328125 C 5.429688 -6.628906 5.054688 -6.78125 4.578125 -6.78125 Z M 4.890625 0.140625 C 3.566406 0.140625 2.53125 -0.222656 1.78125 -0.953125 C 1.039062 -1.679688 0.671875 -2.710938 0.671875 -4.046875 C 0.671875 -5.421875 1.015625 -6.484375 1.703125 -7.234375 C 2.390625 -7.992188 3.34375 -8.375 4.5625 -8.375 C 5.71875 -8.375 6.617188 -8.039062 7.265625 -7.375 C 7.921875 -6.71875 8.25 -5.804688 8.25 -4.640625 L 8.25 -3.546875 L 2.953125 -3.546875 C 2.972656 -2.910156 3.160156 -2.410156 3.515625 -2.046875 C 3.867188 -1.691406 4.363281 -1.515625 5 -1.515625 C 5.488281 -1.515625 5.953125 -1.566406 6.390625 -1.671875 C 6.835938 -1.773438 7.300781 -1.941406 7.78125 -2.171875 L 7.78125 -0.4375 C 7.382812 -0.238281 6.960938 -0.09375 6.515625 0 C 6.078125 0.09375 5.535156 0.140625 4.890625 0.140625 Z M 4.890625 0.140625 "/></g></g></g><g fill="#737373" fill-opacity="1"><g transform="translate(144.466319, 51.44541)"><g><path d="M 8.75 0 L 6.515625 0 L 6.515625 -4.796875 C 6.515625 -5.390625 6.410156 -5.832031 6.203125 -6.125 C 5.992188 -6.425781 5.65625 -6.578125 5.1875 -6.578125 C 4.5625 -6.578125 4.109375 -6.363281 3.828125 -5.9375 C 3.554688 -5.519531 3.421875 -4.828125 3.421875 -3.859375 L 3.421875 0 L 1.171875 0 L 1.171875 -8.21875 L 2.890625 -8.21875 L 3.1875 -7.15625 L 3.3125 -7.15625 C 3.5625 -7.5625 3.90625 -7.863281 4.34375 -8.0625 C 4.78125 -8.269531 5.28125 -8.375 5.84375 -8.375 C 6.800781 -8.375 7.523438 -8.113281 8.015625 -7.59375 C 8.503906 -7.070312 8.75 -6.328125 8.75 -5.359375 Z M 8.75 0 "/></g></g></g><g fill="#737373" fill-opacity="1"><g transform="translate(154.352743, 51.44541)"><g><path d="M 4.640625 -1.640625 C 5.023438 -1.640625 5.492188 -1.722656 6.046875 -1.890625 L 6.046875 -0.234375 C 5.484375 0.015625 4.796875 0.140625 3.984375 0.140625 C 3.085938 0.140625 2.4375 -0.0820312 2.03125 -0.53125 C 1.625 -0.988281 1.421875 -1.671875 1.421875 -2.578125 L 1.421875 -6.53125 L 0.34375 -6.53125 L 0.34375 -7.484375 L 1.578125 -8.234375 L 2.21875 -9.96875 L 3.65625 -9.96875 L 3.65625 -8.21875 L 5.953125 -8.21875 L 5.953125 -6.53125 L 3.65625 -6.53125 L 3.65625 -2.578125 C 3.65625 -2.253906 3.742188 -2.015625 3.921875 -1.859375 C 4.097656 -1.710938 4.335938 -1.640625 4.640625 -1.640625 Z M 4.640625 -1.640625 "/></g></g></g><g fill="#737373" fill-opacity="1"><g transform="translate(160.882484, 51.44541)"><g><path d="M 2.953125 -4.125 C 2.953125 -3.3125 3.085938 -2.695312 3.359375 -2.28125 C 3.628906 -1.863281 4.066406 -1.65625 4.671875 -1.65625 C 5.265625 -1.65625 5.691406 -1.859375 5.953125 -2.265625 C 6.210938 -2.679688 6.34375 -3.300781 6.34375 -4.125 C 6.34375 -4.9375 6.207031 -5.546875 5.9375 -5.953125 C 5.675781 -6.359375 5.25 -6.5625 4.65625 -6.5625 C 4.050781 -6.5625 3.613281 -6.359375 3.34375 -5.953125 C 3.082031 -5.546875 2.953125 -4.9375 2.953125 -4.125 Z M 8.640625 -4.125 C 8.640625 -2.78125 8.285156 -1.734375 7.578125 -0.984375 C 6.878906 -0.234375 5.898438 0.140625 4.640625 0.140625 C 3.847656 0.140625 3.148438 -0.03125 2.546875 -0.375 C 1.941406 -0.71875 1.476562 -1.210938 1.15625 -1.859375 C 0.832031 -2.503906 0.671875 -3.257812 0.671875 -4.125 C 0.671875 -5.46875 1.019531 -6.507812 1.71875 -7.25 C 2.425781 -8 3.414062 -8.375 4.6875 -8.375 C 5.46875 -8.375 6.160156 -8.203125 6.765625 -7.859375 C 7.367188 -7.515625 7.832031 -7.019531 8.15625 -6.375 C 8.476562 -5.738281 8.640625 -4.988281 8.640625 -4.125 Z M 8.640625 -4.125 "/></g></g></g></svg>